<?xml version="1.0" encoding="UTF-8"?>
<svg id="Layer_1" data-name="Layer 1" xmlns="http://www.w3.org/2000/svg" width="155.14mm" height="212.23mm" viewBox="0 0 439.77 601.58">
  <defs>
    <style>
      .cls-1 {
        fill: none;
        stroke: #231f20;
        stroke-miterlimit: 10;
        stroke-width: .25px;
      }
    </style>
  </defs>
  <path class="cls-1" d="M240.1,3.62c11.67,1.28,22,10.45,22.73,22.33,1.75,13.81,1.3,27.82,1.38,41.83-.28,3.12,1.21,7.49-2.43,9.05-6.35,0-10.39,7.78-6.66,12.96,3.01,5.44,10.49,1.16,9.92,7.95,1.22,14.66,2.63,29.32,4.14,44,2.04,10.26-3.76,5.46-8.64,10.5-2.64,3.41-2.43,7.96.35,11.24,3.45,3.64,7.21,1.01,9.88,4.09.9,7.89.5,16.09.63,24.15.11,4.85.39,9.7.55,14.52.62,4.37-2.77,4.88-6.26,4.67-1.64.16-2.95,1.31-4.28,2.12-5.55,6.42-.56,15.66,7.8,13.91,1.27-.51,2.92.01,3.85.98,6.69,14.04,24-.26,12.15-9.4-7.74-2.01-1.49-10.03-1.12-15.07,2.45-4.24.78-15.6,8.2-13.55,6.96.7,11.59-7.71,7.17-13.23-5.9-5.96-9.68-.94-6.02-12.84,2.07-9.69,4.39-19.24,6.48-28.88.91-1.2,2.47-1.49,3.89-1.44,6.27-.39,9.59-8.67,5.48-13.34-3.11-3.86-7.66-2.01-5.87-9.03,1.86-13.6,3.33-27.31,8.01-40.36,7.99-35.55,55.56-23.81,51.64,10.35-1.68,11.24-4.11,22.49-5.8,33.69.07,1.83-.76,3.63-.83,5.46-.41,3.93-1.02,7.43-5.91,6.39-9.89.44-10.43,15.02-.68,16.49,2.12.03,3.45,2.88,2.44,4.65-.8,10.31-.74,20.81-1.93,31.11-.19,4.33.56,11.55-6.05,9.88-.99-.01-1.96.52-2.96.59-5.14,2.26-6.49,9.3-2.64,13.32,3.08,3.61,10.23,1.45,7.58,8.54-1.39,8.96-3.59,17.9-5.05,26.91,1.1,2.92-1.01,5.56-1.11,8.4-2.59,5.94-5.99.04-11.4,5.21-3.23,3.72-2.87,9.42,1.09,12.5,1.98,1.59,5,.91,6.65,2.9.51,3.14,3.24,5.09,4.79,7.76,1.24,1.13,2.58,2.36,2.19,4.22.12,1.52-1.6,2.42-2.46,3.47-3.7,4.87,2.45,11.25,7.32,7.25,5.06-6.16-2.45-7.14-1.1-12.1,2.4-3.29,5.25-6.35,7.69-9.64,3.21-2.5,5.59,1.53,8.75.37,3.23-.68,4.84-5.1,2.93-7.77-.59-1.55-2.99-1.9-2.98-3.76-.16-4.7,3.8-8.36,4.97-12.76,1.41-3.05.94-7.46,5.26-7.86,2.52,1.02,5.51.69,7.1-1.73,3.24-6.96-3.26-6.22-4.27-10.5-.42-11.55,4.96-23.48,11.21-33.18,6.99-14.13,22.52-24.53,37.36-14.68,14.77,8.66,11.66,27.18,7.42,41.06-1.77,4.71-4.24,24.17-9.18,24.55-1.64.68-3.62-.73-5.42-.28-7.38,0-9.99,10.44-4.32,14.64,1.41.72,3.06,1.42,3.74,2.97-.02,5.64-3.37,10.73-4.97,16.08-2.4,7.46-11.03-2.16-14.91,7.89-3.96,8.58,8.19,9.34,2.68,16.18-3.5,4.55-4.63,17.34-9.89,18.27-6.57-1.34-11.59,2.09-11.25,9.03,2.01,8.59,8.68,5.45,8.86,9.55-.52,13.54-1.47,26.9-3.94,40.18-1.26,4.37-1.1,9.4-2.49,13.83-.79,9.57-3.67,18.76-5.25,28.15-.98,4.14-1.56,8.27-2.72,12.41-.59,2.54-.35,5.41-1.7,7.67-8.05,22.32-14.78,46.3-28.65,66.12-1.47,1.92-4.37,3.26-4.49,5.87-2,6.88-4.57,13.52-7.46,20.07-4.99,9.24-5.69,19.71-9.66,29.42-.54,6.99-2.48,13.85-2.49,20.88-.34,5.37.38,10.93.28,16.35,1.31,1.33-191.86,1.13-190.56,0-.48-10.86.45-21.6.77-32.35-1.03-10.27-.94-20.83-2.42-30.99.25-3.29-2.9-5.83-3.04-9.04.05-.84.12-1.73-.75-2.09-3.26-2.68-6.2-7.03-8.15-10.64-1.37-2.08-4.03-3.08-4.64-5.61.41-2.38-2.27-3.08-3.64-4.4-1.19-1.11-.83-2.65-1.31-4-1.25-1.34-2.74-2.58-3.66-4.15.07-3.37-3.15-5.62-4.5-8.45-1.63-.65-1.82-2.54-2.76-3.86-7.96-13.2-20.16-23.41-27.5-36.84-11.25-15.03-22.9-30.47-25.68-49.52-.5-2.15-2.97-9.74-1.02-11.27,3.01-1.81,6.61-2.03,7.84-6.12,2.16-5-1.95-11.7-7.65-11-5.79.43-5.11-4.33-6.35-8.53-1.49-6.23-4.67-12-5.83-18.18-1.04-2.14-1.34-4.59-2.14-6.84-1-3.35-2.55-7.25,2.04-8.47,10.17-3.8,3.66-19.81-6.31-14.98-.09-.11-1.05.18-1.15.32-5.35.16-4.93-7.07-7.32-10.48-.56-1.88-2.07-3.41-2.48-5.38-.28-1.86-2.27-3.44-2.21-5.5-1.41-5.93-1.5-12.15-2.86-18.13-2.23-3.67-1.27-8.08-1.83-12.1-1.09-3.39-1-6.94-.28-10.4.19-34.38,41.99-34.41,59.21-11.56,13.15,13.95,19.05,33.64,21.63,52.22-2.2,4.06-6.34-.52-10.41,6.27-3.31,6.04,2.32,13.87,9.21,11.75,1.56-.08,2.91-1.6,4.53-1.32,1.29.3,2.97,1.08,2.86,2.66,3.7,9.37,12.11,17.04,14.06,27.19.42,2.7-2.85,3.9-3.59,6.3-1.99,4.36.55,9.9,5.28,11.29,5.84.01,11.67.17,16.86-2.74,3.46-.27,7.1-1.5,8.55-5.03.72-1.48.68-3.17,1.56-4.6,3.26-5.82,2.3-12.97,2.81-19.48.63-7.61,1.1-15.63-.28-23.12-.42-12.61-.92-25.3-1.93-37.75-.41-3.86-1.05-7.72-1.38-11.61,1.22-2.59,4.7-2.22,6.4-4.4,5.17-4.97,1.08-14.53-6.15-13.98-1.31.24-2.93.38-3.93-.78-2.45-3.62-1.95-8.68-3.77-12.65.21-.83-.33-1.66-.28-2.45-.36-.46-.19-1.23-.55-1.7-1.15-9.11-5.79-18.03-5.93-27.21,1.41-2.71,5.08-1.57,7-6.36,2.67-6.1-3.34-13.23-9.75-11.05-5.17-.12-4.25-5.21-5.13-8.95-1.24-9.46-2.32-19.16-4.1-28.61-.24-2.19.24-3.94,2.87-4.74,10.21-2.62,5.99-18.87-4.36-15.76-.15-.1-.91-.42-1.17-.28-2.63-1.21-2.64-4.44-2.91-6.96-.54-2.1-.98-4.43-1.1-6.67-.34-.43-.29-1.28-.28-1.81-3.86-20.92-9.22-57.77,22.14-57.54,25.14.71,26.8,37.05,31.71,55.34.93,4.12,1.6,6.92-3.33,8.11-3.06,1.53-5.01,5.37-4.24,8.72.55,4.23,4.56,7.23,8.79,6.61,5.34-.92,5.15,1.45,6.73,5.6,1.83,5.84,3.82,11.66,6.06,17.4.97,3.99,3.62,7.86,3.29,12.06-.97,2.12-3.76,2.27-5.38,3.73-5.96,5.46-1.1,15.85,7.01,14.28,1.98-.84,4.62-1.35,6.11.6,2.94,8.05,5.23,16.26,8.1,24.36,1.28,3.36,2.68,6.78,3.31,10.28.52,4.31-3.08,3.66-4.36,7.69-3.31,7.74,7.62,15.17,13.29,8.53,5.95-7.2,6.96,4.19,15.95-.76,4.75-3.17,4.9-10.09.42-13.61-1.76-1.55-4.37-1.03-6.06-2.47-1.72-1.46-.81-4.01-1.02-5.99.12-8.87.21-17.72.55-26.6-.43-7.03,6.46-1.89,9.88-9,.39-1.5,1.35-3.25.61-4.75-1.08-9.61-12.1-4.37-11.05-11.34-.04-6.19-.04-12.39.28-18.52.8-9.66.72-19.44,1.1-29.15.09-6.67,3.38-3.81,7.45-5.82,3.64-1.84,5.53-6.71,3.75-10.49-3.64-9.08-13.17-.05-10.65-13.68,1.5-13.59-1.69-27.63.55-41.11,2.46-13.79,14.86-24.32,29.19-23.14Z"/>
</svg>